<svg width="96" height="96" xmlns="http://www.w3.org/2000/svg">

 <g>
  <title>background</title>
  <rect fill="none" id="canvas_background" height="402" width="582" y="-1" x="-1"/>
 </g>
 <g>
  <title>Layer 1</title>
  <path stroke-miterlimit="10" stroke-linejoin="round" stroke-linecap="round" stroke-width="2" stroke="#ff4500" fill="none" id="svg_1" d="m88.8,47.5l-8.2,0c-0.8,0 -1.5,0.7 -1.5,1.5l0,42c0,0.8 -0.7,1.5 -1.5,1.5l-13.6,0c-0.8,0 -1.5,-0.7 -1.5,-1.5l0,-26c0,-0.8 -0.7,-1.5 -1.5,-1.5l-26,0c-0.8,0 -1.5,0.7 -1.5,1.5l0,26c0,0.8 -0.7,1.5 -1.5,1.5l-13.5,0c-0.8,0 -1.5,-0.7 -1.5,-1.5l0,-42c0,-0.8 -0.7,-1.5 -1.5,-1.5l-8.3,0c-1.4,0 -2,-1.6 -1.1,-2.6l40.8,-40.8c0.6,-0.6 1.6,-0.6 2.2,0l40.8,40.8c0.9,1 0.2,2.6 -1.1,2.6z" class="st2"/>
 </g>
</svg>